# xmcd
#
# Track frame offsets:
#	150
#	32472
#	86425
#	128447
#	189232
#
# Disc length: 3000 seconds
#
# Revision: 0
# Processed by: cddbd v1.5.1PL0 Copyright (c) Steve Scherf et al.
# Submitted via: EasyCDDAExtractor 7.1.2.1
#
DISCID=2b0bb605
DTITLE=LeAnn Rimes - Past, Present and Future - Radio Special
DYEAR=1997
DGENRE=Country
TTITLE0=An Amazing Twelve Months
TTITLE1=Who's The Boss - A Fast New Car
TTITLE2=Singing Without a Care
TTITLE3=Some New Inspirational Songs - Songs We Love
TTITLE4=A Collection of Pop Standards
EXTD=
EXTT0=
EXTT1=
EXTT2=
EXTT3=
EXTT4=
PLAYORDER=
